<svg width="30" height="30" viewBox="0 0 30 30" fill="none" xmlns="http://www.w3.org/2000/svg">
<g filter="url(#filter0_d_995_4525)">
<path d="M13.5542 5.24L10.1712 1.335C9.78123 0.885 9.06623 0.887 8.61323 1.341L5.83123 4.128C5.00323 4.957 4.76623 6.188 5.24523 7.175C8.10685 13.1 12.8853 17.8851 18.8062 20.755C19.7922 21.234 21.0222 20.997 21.8502 20.168L24.6582 17.355C25.1132 16.9 25.1142 16.181 24.6602 15.791L20.7402 12.426C20.3302 12.074 19.6932 12.12 19.2822 12.532L17.9182 13.898C17.8484 13.9712 17.7565 14.0194 17.6566 14.0353C17.5567 14.0512 17.4543 14.0339 17.3652 13.986C15.1357 12.7021 13.2862 10.8502 12.0052 8.619C11.9573 8.52975 11.9399 8.42723 11.9558 8.32716C11.9717 8.22708 12.02 8.13499 12.0932 8.065L13.4532 6.704C13.8652 6.29 13.9102 5.65 13.5542 5.239V5.24Z" stroke="white" stroke-width="1.5" stroke-linecap="round" stroke-linejoin="round" shape-rendering="crispEdges"/>
</g>
<defs>
<filter id="filter0_d_995_4525" x="0.249023" y="0.248932" width="29.501" height="29.5017" filterUnits="userSpaceOnUse" color-interpolation-filters="sRGB">
<feFlood flood-opacity="0" result="BackgroundImageFix"/>
<feColorMatrix in="SourceAlpha" type="matrix" values="0 0 0 0 0 0 0 0 0 0 0 0 0 0 0 0 0 0 127 0" result="hardAlpha"/>
<feOffset dy="4"/>
<feGaussianBlur stdDeviation="2"/>
<feComposite in2="hardAlpha" operator="out"/>
<feColorMatrix type="matrix" values="0 0 0 0 0 0 0 0 0 0 0 0 0 0 0 0 0 0 0.25 0"/>
<feBlend mode="normal" in2="BackgroundImageFix" result="effect1_dropShadow_995_4525"/>
<feBlend mode="normal" in="SourceGraphic" in2="effect1_dropShadow_995_4525" result="shape"/>
</filter>
</defs>
</svg>
